<svg width="27" height="26" viewBox="0 0 27 26" fill="none" xmlns="http://www.w3.org/2000/svg">
<path fill-rule="evenodd" clip-rule="evenodd" d="M13.9059 2.16663C20.333 2.16663 25.562 7.20196 25.562 13.391C25.562 19.5801 20.333 24.6155 13.9059 24.6155C7.47876 24.6155 2.24976 19.5801 2.24976 13.391C2.24976 7.20196 7.47876 2.16663 13.9059 2.16663ZM13.9059 3.79163C8.40913 3.79163 3.93726 8.09896 3.93726 13.391C3.93726 18.6842 8.40913 22.9905 13.9059 22.9905C19.4026 22.9905 23.8745 18.6842 23.8745 13.391C23.8745 8.09896 19.4026 3.79163 13.9059 3.79163ZM18.2614 9.19735C18.4831 9.41185 18.5641 9.7271 18.4696 10.0142L16.6786 15.5273C16.5964 15.7819 16.3883 15.9812 16.1251 16.0603L10.3999 17.786C10.3167 17.8109 10.2312 17.8229 10.1479 17.8229C9.92743 17.8229 9.71143 17.7394 9.55056 17.5856C9.32893 17.3711 9.24793 17.0559 9.34243 16.7688L11.1346 11.2557C11.2167 11 11.4237 10.8018 11.6869 10.7227L17.4121 8.99693C17.7124 8.90485 18.0387 8.98393 18.2614 9.19735ZM16.3782 11.0109L12.6128 12.1462L11.4349 15.7721L15.1992 14.6368L16.3782 11.0109Z" fill="white"/>
</svg>
