<svg width="24" height="25" viewBox="0 0 24 25" fill="none" xmlns="http://www.w3.org/2000/svg">
<circle cx="12" cy="12.8571" r="3" stroke="#A49E9D" stroke-width="1.5"/>
<path d="M13.7654 3.0093C13.3978 2.85706 12.9319 2.85706 12 2.85706C11.0681 2.85706 10.6022 2.85706 10.2346 3.0093C9.74457 3.21228 9.35522 3.60163 9.15223 4.09169C9.05957 4.3154 9.0233 4.57556 9.00911 4.95505C8.98826 5.51274 8.70226 6.02895 8.21894 6.30799C7.73564 6.58702 7.14559 6.5766 6.65219 6.31581C6.31645 6.13836 6.07301 6.03968 5.83294 6.00807C5.30704 5.93884 4.77518 6.08135 4.35436 6.40426C4.03874 6.64644 3.80577 7.04995 3.33983 7.85699C2.87389 8.66402 2.64092 9.06754 2.58899 9.46196C2.51976 9.98786 2.66227 10.5197 2.98518 10.9405C3.13256 11.1326 3.3397 11.2941 3.66119 11.4961C4.1338 11.793 4.43789 12.2989 4.43786 12.8571C4.43783 13.4152 4.13375 13.921 3.66118 14.2179C3.33965 14.4199 3.13248 14.5814 2.98508 14.7735C2.66217 15.1943 2.51966 15.7262 2.5889 16.2521C2.64082 16.6465 2.87379 17.05 3.33973 17.8571C3.80568 18.6641 4.03865 19.0676 4.35426 19.3098C4.77508 19.6327 5.30694 19.7752 5.83284 19.706C6.07289 19.6744 6.31632 19.5757 6.65204 19.3983C7.14547 19.1375 7.73556 19.127 8.2189 19.4061C8.70224 19.6852 8.98826 20.2014 9.00911 20.7591C9.02331 21.1386 9.05957 21.3987 9.15223 21.6224C9.35522 22.1125 9.74457 22.5018 10.2346 22.7048C10.6022 22.8571 11.0681 22.8571 12 22.8571C12.9319 22.8571 13.3978 22.8571 13.7654 22.7048C14.2554 22.5018 14.6448 22.1125 14.8477 21.6224C14.9404 21.3987 14.9767 21.1385 14.9909 20.759C15.0117 20.2014 15.2977 19.6852 15.781 19.4061C16.2643 19.127 16.8544 19.1374 17.3479 19.3982C17.6836 19.5756 17.927 19.6743 18.167 19.7059C18.6929 19.7751 19.2248 19.6326 19.6456 19.3097C19.9612 19.0675 20.1942 18.664 20.6601 17.857C21.1261 17.05 21.3591 16.6464 21.411 16.252C21.4802 15.7261 21.3377 15.1943 21.0148 14.7734C20.8674 14.5814 20.6602 14.4199 20.3387 14.2179C19.8662 13.9209 19.5621 13.4151 19.5621 12.857C19.5621 12.2989 19.8662 11.7931 20.3387 11.4962C20.6603 11.2942 20.8675 11.1327 21.0149 10.9406C21.3378 10.5198 21.4803 9.98792 21.4111 9.46203C21.3592 9.06761 21.1262 8.66409 20.6602 7.85706C20.1943 7.05002 19.9613 6.6465 19.6457 6.40432C19.2249 6.08142 18.693 5.93891 18.1671 6.00814C17.9271 6.03974 17.6837 6.13841 17.3479 6.31585C16.8545 6.57665 16.2644 6.58707 15.7811 6.30802C15.2977 6.02896 15.0117 5.51272 14.9909 4.95499C14.9767 4.57553 14.9404 4.31539 14.8477 4.09169C14.6448 3.60163 14.2554 3.21228 13.7654 3.0093Z" stroke="#A49E9D" stroke-width="1.5"/>
</svg>
