<svg width="24" height="25" viewBox="0 0 24 25" fill="none" xmlns="http://www.w3.org/2000/svg">
<path d="M22 8.92876C20.4123 8.57692 19.5955 7.71252 18.9199 6.75116C18.4965 6.14873 17.5655 6.18534 17.1055 6.76358C16.0541 8.0855 14.4844 9.14282 12 9.14282C9.49345 9.14282 7.91806 7.79753 6.86651 6.5316C6.42721 6.00274 5.58617 6.0098 5.20168 6.57515C4.50078 7.60571 3.68402 8.55556 2 8.92876" stroke="#A49E9D" stroke-width="1.5" stroke-linecap="round" stroke-linejoin="round"/>
<path d="M22 18.9288C20.4123 18.5769 19.5955 17.7125 18.9199 16.7512C18.4965 16.1487 17.5655 16.1853 17.1055 16.7636C16.0541 18.0855 14.4844 19.1428 12 19.1428C9.49345 19.1428 7.91806 17.7975 6.86651 16.5316C6.42721 16.0027 5.58617 16.0098 5.20168 16.5751C4.50078 17.6057 3.68402 18.5556 2 18.9288" stroke="#A49E9D" stroke-width="1.5" stroke-linecap="round" stroke-linejoin="round"/>
<path d="M22 13.9288C20.4123 13.5769 19.5955 12.7125 18.9199 11.7512C18.4965 11.1487 17.5655 11.1853 17.1055 11.7636C16.0541 13.0855 14.4844 14.1428 12 14.1428C9.49345 14.1428 7.91806 12.7975 6.86651 11.5316C6.42721 11.0027 5.58617 11.0098 5.20168 11.5751C4.50078 12.6057 3.68402 13.5556 2 13.9288" stroke="#A49E9D" stroke-width="1.5" stroke-linecap="round" stroke-linejoin="round"/>
</svg>
